# xmcd
#
# Track frame offsets:
#	150
#	11165
#	23183
#	40670
#	60533
#	79965
#	94863
#	106513
#	116388
#	129793
#	148518
#	160128
#	175500
#	190858
#	208780
#	227888
#
# Disc length: 3195
#
# Revision: 2
# Processed by: cddbd v1.5.1PL0 Copyright (c) Steve Scherf et al.
# Submitted via: audiograbber 1.81.02
# Normalized: r1:DSETVAR1
#
DISCID=c40c7910
DTITLE=Various Artist - Soul Collection - When a Man... CD 1
DYEAR=1900
DGENRE=Soul
TTITLE0=Sam and Dave - You don´t know what you mean to me
TTITLE1=The Drifters - Weets for my sweet
TTITLE2=James Brown - Please plase please
TTITLE3=Gladys Knight - Giorgia on my mind
TTITLE4=The Supremes - Stop in the name of love
TTITLE5=Martha Reeves - I heardt in through the grapevine
TTITLE6=Robert Parker - Barefootin´
TTITLE7=The Drifters - When my girl is smiling
TTITLE8=Same and Dave - Don´t pull your love out on me baby
TTITLE9=The Origninals - Please Mr. Postman
TTITLE10=The Tams - What kind of fool
TTITLE11=Johnny Bristol - Someday we´ll be together
TTITLE12=Brook Benton - Bayou Babe
TTITLE13=Miquel Brown - Footprints in the sand
TTITLE14=Dionne Warwick - You ware the heart of me
TTITLE15=Maxine Brown - Oh no not my baby
EXTD=
EXTT0=
EXTT1=
EXTT2=
EXTT3=
EXTT4=
EXTT5=
EXTT6=
EXTT7=
EXTT8=
EXTT9=
EXTT10=
EXTT11=
EXTT12=
EXTT13=
EXTT14=
EXTT15=
PLAYORDER=
